<svg xmlns="http://www.w3.org/2000/svg" width="54.125" height="54.125" viewBox="0 0 54.125 54.125">
  <defs>
    <style>
      .cls-1 {
        fill: #262626;
        fill-rule: evenodd;
      }
    </style>
  </defs>
  <path id="icon" class="cls-1" d="M641,577.9a1.2,1.2,0,0,0,.48-2.148c-1.452-1.055-3.319-2.1-4.717-1.788l2.9-7.217a1.2,1.2,0,0,0-1.561-1.559l-7.224,2.9c0.312-1.4-.733-3.264-1.789-4.715a1.2,1.2,0,0,0-2.148.48,39.134,39.134,0,0,1-2.634,7.889,13.361,13.361,0,0,1,2.172,1.752l4.873,4.871a13.147,13.147,0,0,1,1.758,2.172A38.932,38.932,0,0,1,641,577.9Zm-11.27,2.088-4.872-4.871a10.731,10.731,0,0,0-16.946,2.333l-5.352,9.509,5.808,9.575-8.347-5.063-11.773,20.943a3.081,3.081,0,0,0,2.658,4.59,3.122,3.122,0,0,0,1.518-.408l9.151-5.142-3.072-5.7,6.745,3.636,18.806-10.565-5.161-9.011,10.279,5.885A10.751,10.751,0,0,0,629.73,579.985Z" transform="translate(-587.844 -562.875)"/>
</svg>
