<svg xmlns="http://www.w3.org/2000/svg" width="53.688" height="47.625" viewBox="0 0 53.688 47.625">
  <defs>
    <style>
      .cls-1 {
        fill: #262626;
        fill-rule: evenodd;
      }
    </style>
  </defs>
  <path id="icon" class="cls-1" d="M618.285,341.733a11.986,11.986,0,0,0,.878-3.919,12.523,12.523,0,0,0-2.567-8.326,10.619,10.619,0,0,0-3.293-2.867,7.052,7.052,0,0,0-3.363-.919,3.338,3.338,0,0,0-1.031.163l-0.345.115s0.029,0.121.074,0.348,0.054,0.584.088,0.925a20.8,20.8,0,0,1-.133,2.643,16.8,16.8,0,0,0,.584,6.466,15.183,15.183,0,0,0,1.418,3.257,17.151,17.151,0,0,0,2.02,2.809c0.655,0.726,2.133,2.407,2.669,2.834a24.759,24.759,0,0,0,.276-2.922c0.056-.7.01-1.391,0-2.075s-0.136-1.351-.194-2c-0.116-.641-0.274-1.254-0.4-1.84-0.207-.565-0.4-1.1-0.577-1.588-0.251-.461-0.48-0.885-0.683-1.261a5.116,5.116,0,0,0-.643-0.9c-0.385-.484-0.606-0.76-0.606-0.76s0.241,0.258.658,0.713a5.257,5.257,0,0,1,.718.861l0.787,1.23c0.22,0.491.457,1.02,0.71,1.583,0.174,0.585.38,1.2,0.548,1.858,0.109,0.66.287,1.341,0.351,2.042s0.164,1.418.159,2.136c0.031,0.815.018,1.621-.019,2.415,0.065-.069.139-0.127,0.2-0.2A10.63,10.63,0,0,0,618.285,341.733Zm-6.389,5.948c0.107,0.176.2,0.343,0.3,0.516a15.148,15.148,0,0,0-11.477,10.009l0.357,0.045a16.2,16.2,0,0,1,2.281.316,1.774,1.774,0,0,1,.359-0.96,4.333,4.333,0,0,1,3.6-1.728,24.053,24.053,0,0,1,7.047.8,5.745,5.745,0,0,0,3.891-.219c3.8-1.521,7.136-1.379,9.832.379,0.333,0.216.68,0.446,1.031,0.683a15.14,15.14,0,0,0-11.624-9.405c0.145-.253.284-0.506,0.445-0.768a2.877,2.877,0,0,0,.406-1.034,2.02,2.02,0,0,1-.016-0.278c-0.542.681-1.028,1.366-1.457,2.018-0.264-.033-0.535-0.043-0.8-0.062,0.138-1.015.253-2.1,0.307-3.245a3.009,3.009,0,0,1-.257.261,3.737,3.737,0,0,0-.5,1.385c-0.094.536-.2,1.044-0.306,1.541-0.094,0-.181-0.022-0.274-0.022a15.291,15.291,0,0,0-2.279.176c-0.38-.565-0.789-1.142-1.252-1.726a2.014,2.014,0,0,1-.017.278A2.847,2.847,0,0,0,611.9,347.681Zm8.769-4.161c0.388-.369.828-0.667,1.218-0.991,0.419-.288.847-0.537,1.237-0.786l1.193-.548c0.389-.112.747-0.218,1.063-0.31a3.924,3.924,0,0,1,.836-0.133l0.732-.079-0.725.131a3.9,3.9,0,0,0-.811.192c-0.3.111-.646,0.24-1.018,0.377l-1.118.619c-0.368.271-.761,0.541-1.144,0.85-0.361.342-.761,0.657-1.109,1.044a15.713,15.713,0,0,0-1.038,1.18,19.247,19.247,0,0,0-1.3,1.8c0.519,0.024,2.2-.2,2.932-0.287a13.063,13.063,0,0,0,2.553-.593,11.63,11.63,0,0,0,2.43-1.147,12.754,12.754,0,0,0,3.554-3.392,15.692,15.692,0,0,1,1.241-1.573c0.187-.176.375-0.385,0.509-0.484l0.216-.159s-0.048-.086-0.139-0.241a2.6,2.6,0,0,0-.506-0.605,5.354,5.354,0,0,0-2.375-1.153,8.046,8.046,0,0,0-3.3-.006,9.473,9.473,0,0,0-5.609,3.467,9.09,9.09,0,0,0-1.45,2.668,7.964,7.964,0,0,0-.425,2.461c0,0.073.009,0.145,0.013,0.215,0.375-.47.77-0.935,1.192-1.386A16,16,0,0,1,620.665,343.52Zm-22.23-3.313a16.066,16.066,0,0,1,1.239,1.571,12.729,12.729,0,0,0,3.554,3.393,11.554,11.554,0,0,0,2.432,1.148,12.938,12.938,0,0,0,2.549.593c0.736,0.087,2.416.31,2.933,0.284a18.519,18.519,0,0,0-1.3-1.8c-0.315-.426-0.688-0.8-1.035-1.182s-0.75-.7-1.108-1.043c-0.385-.309-0.781-0.579-1.146-0.85l-1.118-.619c-0.373-.137-0.715-0.263-1.017-0.377a4.037,4.037,0,0,0-.813-0.192l-0.722-.13,0.73,0.077a4.142,4.142,0,0,1,.837.134c0.315,0.091.671,0.2,1.061,0.31l1.194,0.548c0.391,0.246.817,0.5,1.238,0.787,0.391,0.322.83,0.62,1.217,0.99s0.8,0.725,1.154,1.135c0.422,0.449.817,0.916,1.192,1.386,0-.071.017-0.142,0.013-0.216a7.909,7.909,0,0,0-.425-2.46,9.006,9.006,0,0,0-1.452-2.668,9.458,9.458,0,0,0-5.608-3.467,8.029,8.029,0,0,0-3.3.007,5.353,5.353,0,0,0-2.376,1.152,2.624,2.624,0,0,0-.507.605c-0.089.156-.138,0.239-0.138,0.239s0.074,0.055.214,0.162S598.247,340.029,598.435,340.207Zm36.935,25.1a31.868,31.868,0,0,0-8.566-7.587c-2.6-1.691-5.561-1.331-8.318-.228a7.347,7.347,0,0,1-4.985.265,22.507,22.507,0,0,0-6.555-.732,2.712,2.712,0,0,0-2.3,1.074c-0.315.415,2.266,2.142,4.48,2.142-0.411.82-7.567-.915-8.521-0.844l-5.413-.693c-1.924-.158-1.921-0.883-3.814.186a0.474,0.474,0,0,1-.236.033,2.4,2.4,0,0,0-2.232.97,1.3,1.3,0,0,0-.131,1.367c0.191,0.489.674,0.362,1.07,0.519a37.142,37.142,0,0,0,6.484,2.238c2.335,0.577,4.61,1.28,6.942,1.808a10.126,10.126,0,0,1,2.813.871,10.709,10.709,0,0,0,5.92,1.259c2.395-.108,4.795-0.013,7.2-0.028a10.254,10.254,0,0,1,9.577,5.377l13.548-.027C639.375,369.811,638.07,368.973,635.37,365.3Z" transform="translate(-588.656 -325.688)"/>
</svg>
