<svg xmlns="http://www.w3.org/2000/svg" width="53" height="53.156" viewBox="0 0 53 53.156">
  <defs>
    <style>
      .cls-1 {
        fill: #262626;
        fill-rule: evenodd;
      }
    </style>
  </defs>
  <path id="icon" class="cls-1" d="M629.081,479.4c0.641,0.045,1.284.091,1.917,0.116a19.049,19.049,0,0,1-14.611,8.456c0.3-.581.6-1.174,0.886-1.777a17.1,17.1,0,0,0,4.427-1.167,0.421,0.421,0,0,0,.039-0.086,1.151,1.151,0,0,1,.213-0.366l-0.084-.211,0.185-.263a2.409,2.409,0,0,1,.34-0.444c0.131-.1,1.229-1.053,1.468-1.232,0.207-.164,1.118-0.849,1.517-1.173,0.054-.044.1-0.086,0.135-0.113a7.528,7.528,0,0,0,.943-1.159,5.856,5.856,0,0,0,.354-0.793h0C627.57,479.268,628.33,479.34,629.081,479.4Zm-18.612,1.292c-0.072-.011.021,0.039,0.082,0.071A0.115,0.115,0,0,0,610.469,480.688Zm14.287-1.34a4.685,4.685,0,0,0,.627,0h0.056a1.341,1.341,0,0,0,.629-0.238l0.022-.012h0c-0.232-.03-0.471-0.059-0.7-0.092s-0.466-.063-0.7-0.1a0.382,0.382,0,0,1,.23.254C624.783,479.215,624.548,479.321,624.756,479.348Zm-14.2,1.411a0.009,0.009,0,0,1,0,.007C610.622,480.8,610.6,480.783,610.552,480.759Zm5.919-14.153s0.012,0.015.028,0.032C616.515,466.609,616.471,466.606,616.471,466.606Zm6.322,4.177h-0.04l-0.036.15c-0.167.612-.335,1.234-0.513,1.853,0.144,0,.278.016,0.278,0.016a0.4,0.4,0,0,0,.2-0.273,1.96,1.96,0,0,1,.159-0.429l0.112,0.023a0.718,0.718,0,0,0,.1-0.341,2.772,2.772,0,0,0-.125-0.5,5.1,5.1,0,0,1,.061-0.531Zm-0.835,2.835-0.084.284,0.129-.023,0.08,0.216c0.031-.069.05-0.122,0.05-0.122a1.308,1.308,0,0,0-.044-0.271A0.221,0.221,0,0,0,621.958,473.618ZM623.6,467.6l-0.04-.021c-0.092.378-.178,0.755-0.274,1.128a0.317,0.317,0,0,0,.283.064,3.35,3.35,0,0,0,.4.02c0.282,0,.327.033,0.377-0.086s0.065,0.066.065-.246a0.613,0.613,0,0,0-.246-0.527A2.417,2.417,0,0,0,623.6,467.6ZM641.59,476c-0.844,3.155-10.019,3.533-21.66,1.2-3.811,11.273-8.724,19.05-11.871,18.207-1.985-.534-2.868-4.391-2.668-10.094,0.068,0.036.137,0.078,0.2,0.112a19.091,19.091,0,0,1-9.471-15.288c0.553,0.289,1.115.565,1.686,0.843,2.039,0.978,4.178,1.872,6.348,2.671H604.15l0.006,0.114-0.312.555-0.289.181,0.078,0.131,0.052,0.263h-0.159v0.578a0.521,0.521,0,0,0,.421.289l-0.131.082a1.26,1.26,0,0,0,.158.341,2.558,2.558,0,0,1,.289.576c0.053,0.184.131,0.7,0.131,0.7s0.343,0.578.5,0.82a8.664,8.664,0,0,1,.6.814c0.131,0.263.419,0.131,0.968,0.263a2.128,2.128,0,0,1,.784.315,5.183,5.183,0,0,0,.475.341,1.723,1.723,0,0,0,.863.1,2.585,2.585,0,0,1,.748.119l0.094,0.012a1.355,1.355,0,0,1,.812.359l0.027,0.013c0.163,0.072.249,0.106,0.3,0.131a2.218,2.218,0,0,1,.046.444c0.027,0.131.211-.025,0.342-0.025a0.489,0.489,0,0,1,.237.15,0.57,0.57,0,0,0,.128.059c0.234,0.078.287-.078,0.287-0.078l0.264,0.314,0.21,0.289-0.21.5-0.183.183a1.852,1.852,0,0,0,0-.425c-0.028-.181-0.183.085-0.183,0.085l-0.158.5,0.574,0.555,0.174,0.156,0.376,0.345,0.025,0.067,0.214,0.617-0.029.209,0.131,0.346a2.1,2.1,0,0,1-.316.1,0.7,0.7,0,0,1-.156.026,0.426,0.426,0,0,0-.245.183,1.75,1.75,0,0,0-.148.21,2.092,2.092,0,0,0,.148.239,0.914,0.914,0,0,0,.193.207c0.037,0.03.07,0.043,0.1,0.071,0.029,0,.056.011,0.085,0.014-0.007.014-.013,0.023-0.019,0.033h0l-0.078.134h0c-0.228.394-.514,0.879-0.844,1.393a19.119,19.119,0,0,1-5.5-1.98l0.01,0c0.051,3.445.694,5.678,1.952,6.016,2.383,0.64,6.248-5.724,9.438-15.03q-2.013-.45-4.087-1.012c-14.6-3.924-25.635-10.132-24.637-13.865,0.533-1.99,4.374-2.874,10.062-2.674-0.066.111-.128,0.229-0.19,0.34a19.037,19.037,0,0,1,16.667-9.671c-0.115,0-.233-0.006-0.352,0,2.671-5.034,5.36-7.933,7.342-7.4,3.723,1,3.57,13.687-.343,28.325-0.365,1.387-.76,2.741-1.164,4.055,9.635,1.885,17.058,1.712,17.707-.68,0.336-1.26-1.273-2.933-4.223-4.7v-0.023a19.26,19.26,0,0,1-1.04,5.775c-0.61.033-1.169,0.035-1.622,0.035h0c-0.369,0-.659-0.006-0.831-0.013-0.5-.018-0.991-0.04-1.491-0.078a6.026,6.026,0,0,0,.18-0.661,2.921,2.921,0,0,1,.115-0.407l-0.586-.135-0.068-.384-0.247-.044-0.227.433a1.327,1.327,0,0,1-.383.379,1.383,1.383,0,0,1-.471.135l0.065-.311a0.617,0.617,0,0,0-.336.042l-0.025-.3a0.692,0.692,0,0,0-.246-0.314,0.912,0.912,0,0,1-.3-0.272,1.226,1.226,0,0,1-.134-0.273,0.093,0.093,0,0,0-.02-0.019l0.033-.155s0.213-.237.389-0.446,0.236,0.209.418,0.362a0.4,0.4,0,0,1,.12.386,0.645,0.645,0,0,0,.268.061,0.233,0.233,0,0,1,.21.118l0.3,0.119,0.3-.331a0.289,0.289,0,0,1,.268-0.209c0.209,0,.033.268,0.033,0.421s0.149,0,.565-0.179a4.072,4.072,0,0,0,.627-0.361,0.6,0.6,0,0,0,.327-0.269,2.807,2.807,0,0,0,.271-0.238l0.327,0.213,0.362-.062,0.361-.211v0.273a0.493,0.493,0,0,0-.092.5c0.151,0.211.178,0.15,0.092,0.42a0.479,0.479,0,0,0,0,.422,0.834,0.834,0,0,1,.031.191,17.442,17.442,0,0,0-6.138-19q0.08-1,.121-1.99a19.138,19.138,0,0,1,8.472,15.9c0-.088,0-0.173,0-0.262C639.233,471.317,642.122,474.01,641.59,476Zm-22.846-20.783s0.189-.106.282-0.149,0-.051-0.093-0.118a0.193,0.193,0,0,0-.215.052,0.629,0.629,0,0,0-.106.173,0.162,0.162,0,0,1-.014.027c-0.052.063-.108-0.1-0.12-0.185a0.453,0.453,0,0,0-.349-0.03,0.969,0.969,0,0,1,.081.174,2.116,2.116,0,0,1,.028.229,0.512,0.512,0,0,0,.053.268,1.294,1.294,0,0,0,.2.2l0.108-.068,0.038-.028,0.163-.269,0.134-.119Zm-2.144-1.19s0.022-.191.127-0.166a0.4,0.4,0,0,0,.21-0.254,0.309,0.309,0,0,0-.189-0.167c-0.106,0-.336.022-0.336,0.022l-0.064-.128a0.627,0.627,0,0,0-.295.042,0.147,0.147,0,0,1-.212-0.085l-0.021-.253-0.233.064-0.168-.148s-0.062-.127.042-0.127a2.136,2.136,0,0,1,.251.022l0.211-.148-0.084-.167,0.146-.167s-0.293-.151-0.358-0.04a0.753,0.753,0,0,1-.3.188,0.311,0.311,0,0,0-.1-0.233c-0.124-.17.062-0.253-0.212-0.191a0.973,0.973,0,0,0-.37.178,0.742,0.742,0,0,0-.093.075,0.5,0.5,0,0,0-.312.168,0.525,0.525,0,0,0,.357.168,0.435,0.435,0,0,1,.048-0.056c0.055-.061.156-0.144,0.227-0.07a1.7,1.7,0,0,1,.187.233l-0.4.21-0.015-.014-0.2-.156h-0.4l-0.189.084-0.379.043a1.253,1.253,0,0,1,.064.295,0.361,0.361,0,0,1-.168.213l-0.225-.021h-0.029l-0.233.167a0.9,0.9,0,0,0-.357.1,0.1,0.1,0,0,1-.054.028c-0.1.026-.2-0.039-0.2,0.1,0,0.168.02,0.253-.1,0.275-0.029.007-.063,0.013-0.1,0.019l-0.3.066a0.96,0.96,0,0,0-.233.168,0.966,0.966,0,0,1-.337.168l-0.034-.01-0.386-.077-0.546.234-0.015.033-0.112.264-0.359.042a0.775,0.775,0,0,0-.315.251,0.265,0.265,0,0,1-.117.138,0.6,0.6,0,0,1-.093.053,1.688,1.688,0,0,0-.316.166,1.8,1.8,0,0,0-.232.25l-0.087.191,0.15,0.213-0.337.04,0.04,0.168c0.168,0.168.275,0.252,0.379,0.168a0.457,0.457,0,0,1,.166-0.191c0.074-.027.208-0.071,0.324-0.113,0.084-.03.16-0.058,0.2-0.077a1.445,1.445,0,0,1,.4-0.188,1.721,1.721,0,0,0,.252-0.021l0.049-.04,0.287-.234,0.337,0.15,0.275-.041a0.2,0.2,0,0,0,.049.122,0.19,0.19,0,0,0,.079.044,1.2,1.2,0,0,0,.313.042,0.357,0.357,0,0,1,.253-0.149h0.376l0.043-.189,0.238,0.111,0.033,0.016,0.19,0.147s-0.084.022,0.126,0.106a0.493,0.493,0,0,0,.323.009,0.541,0.541,0,0,0,.078-0.032l0.359,0.084s0.022-.337-0.085-0.337a1.023,1.023,0,0,1-.314-0.1l0.231-.084,0.252-.042,0.064,0.275,0.4-.128-0.063-.232,0.021-.36,0.378,0.063,0.023,0.252a0.8,0.8,0,0,0,.155.051c0.089,0.025.181,0.028,0.181-.051,0-.148-0.084-0.252.021-0.252a1.608,1.608,0,0,0,.317-0.063l0.1-.15,0.149-.338,0.166,0.255,0.233-.149-0.043-.213,0.5-.233s0.3-.042.426-0.042a0.258,0.258,0,0,0,.165-0.038s0.084-.169-0.042-0.169A0.347,0.347,0,0,1,616.6,454.031Zm-5.029,8.165-0.21.1,0.485,0.234,0.238,0.012,0.178,0.011a1.234,1.234,0,0,0,.151-0.423,0.217,0.217,0,0,1,.071-0.171c0.043-.033.108-0.056,0.2-0.125a0.193,0.193,0,0,0,.086-0.3,0.269,0.269,0,0,0-.287-0.071l-0.051.006-0.349.174-0.031.017-0.167-.213-0.233.064-0.231.233a0.412,0.412,0,0,1,.149.023,0.55,0.55,0,0,1,.232,0c0.167,0.022-.042.167-0.042,0.167l-0.336.085Zm0.8-4.936-0.288.019h-0.008a1.169,1.169,0,0,0,.008.479c0,0.011.008,0.02,0.012,0.032a0.5,0.5,0,0,0,.388.269,0.765,0.765,0,0,0,.287-0.017c0.187-.04.244-0.052,0.255-0.052L613,458a0.059,0.059,0,0,0,.025-0.009l0.13-.05,0.164-.066a0.587,0.587,0,0,0,.271-0.315c0-.151-0.233-0.1-0.421-0.1h-0.014c-0.173,0-.158-0.027-0.238-0.233s-0.085.124-.085,0.124a0.32,0.32,0,0,1-.166-0.209,1.329,1.329,0,0,1-.105-0.338l-0.075.039-0.237.128,0.062,0.127Zm-0.212,6.052s0.085,0.1.212,0.277c0.053,0.072.088,0.048,0.112,0a0.253,0.253,0,0,1,.116-0.169c0.1,0,.023.169,0.149,0.148a3.581,3.581,0,0,1,.4-0.022l0.008,0.009,0.181,0.2a0.5,0.5,0,0,0,.232-0.212c0.022-.1.022-0.1,0.19-0.1s0.105-.022.316-0.191-0.064-.313-0.233-0.4a0.137,0.137,0,0,1-.024-0.232l0.024-.3a1.784,1.784,0,0,0-.024-0.253c-0.021-.147-0.063-0.253-0.084-0.4a0.124,0.124,0,0,0-.167-0.1v-0.191a1.842,1.842,0,0,0,.421-0.042c0.1-.04,0-0.253,0-0.253s-0.25-.1-0.44-0.166-0.064-.1.252-0.126,0.042-.168.042-0.168l-0.252-.147a0.879,0.879,0,0,1-.337.253,0.286,0.286,0,0,0-.1.058,1.432,1.432,0,0,0-.091.258v0.166l0.091,0.157,0.056,0.1a1.263,1.263,0,0,1-.056.179,0.632,0.632,0,0,1-.07.137,0.252,0.252,0,0,0,.041.276,2.138,2.138,0,0,1-.041.424c-0.041.147-.361-0.129-0.361-0.129l-0.062.36h-0.292l0.042,0.191,0.072,0.055,0.116,0.092,0.124,0.19-0.24-.088-0.114-.038Zm-3.3-9.513-0.359.38a1.754,1.754,0,0,0,.422.04,2.022,2.022,0,0,0,.408-0.246c0.128-.088.256-0.174,0.351-0.237a0.364,0.364,0,0,1,.316-0.1l0.085,0.166-0.507.3,0.591-.085,0.07-.066,0.227-.209,0.233-.275,0.357,0.022,0.134-.049,0.306-.117a1.3,1.3,0,0,0,.361-0.359c0.081-.149.137-0.064,0.238-0.041a0.165,0.165,0,0,0,.1,0c0.166-.039.085-0.189,0.085-0.337,0-.071.1-0.078,0.22-0.076a0.687,0.687,0,0,0,.329-0.031c0.124-.087-0.1-0.253-0.274-0.3l-0.055-.013a0.208,0.208,0,0,1-.22-0.176,0.149,0.149,0,0,0-.18-0.1,0.492,0.492,0,0,0-.239.075c-0.125.086-.377,0.1-0.3-0.063a0.373,0.373,0,0,1,.045-0.053,17.8,17.8,0,0,0-1.951.53c0.147,0,.209.007,0.3,0.007,0.126,0-.127.15-0.127,0.15a2.679,2.679,0,0,0-.485.212l-0.012.012a0.233,0.233,0,0,0-.049.222h0.049a1.764,1.764,0,0,0,.265-0.022,1.5,1.5,0,0,0,.461-0.234c0.089-.053.14-0.082,0.175-0.1a0.918,0.918,0,0,0,.182-0.07c0.147-.089.04,0.231,0.04,0.231l0.4-.149,0.324-.014,0.118-.007,0.126-.233-0.244-.052-0.134-.032,0.127-.127h0.007a4.962,4.962,0,0,1,.539.024c0.128,0.019,0,.167,0,0.167l-0.04.166-0.147.275s-0.19.023-.337,0.023h-0.015a0.593,0.593,0,0,0-.3.168l-0.295.209h-0.423l-0.064.233-0.337-.04a1.437,1.437,0,0,1-.062-0.252c-0.023-.15-0.167,0-0.167,0a0.743,0.743,0,0,1-.2.358,0.209,0.209,0,0,1-.093.042A0.782,0.782,0,0,0,608.859,453.8Zm4.584-2.233c-0.181.017-.361,0.034-0.54,0.056,0.023,0,.041.014,0.1,0.026,0.125,0.021.021,0.062,0.021,0.166,0,0.068.031,0.1,0.134,0.115,0.053,0.009.125,0.019,0.227,0.034,0.295,0.041.1-.087,0.062-0.338A0.2,0.2,0,0,1,613.443,451.566Zm-1.135.248a0.547,0.547,0,0,0,.04-0.107c-0.031.006-.06,0.009-0.091,0.014A0.167,0.167,0,0,1,612.308,451.814Zm2.411-.332a0.3,0.3,0,0,0-.033.166c0.022,0.188.063,0,.19-0.042a0.137,0.137,0,0,0,.108-0.125C614.9,451.479,614.812,451.482,614.719,451.482Zm-12.332,5.589,0.265,0.018,0.336-.211,0.337,0.1-0.19.088a2.712,2.712,0,0,0-.231.4,0.7,0.7,0,0,0,.5.1,2.63,2.63,0,0,0,.147-0.569,0.656,0.656,0,0,1,.441-0.275l0.125-.337,0.213,0.15a0.8,0.8,0,0,0,.1-0.337,0.64,0.64,0,0,0-.4-0.128l0.376-.189,0.379,0.1-0.085.736h0.378l0.084,0.129a3.584,3.584,0,0,1-.631.293,0.974,0.974,0,0,0-.337.277l-0.209.234a0.459,0.459,0,0,0,.251.168,0.175,0.175,0,0,1,.165.147,0.355,0.355,0,0,0,.233-0.211,0.177,0.177,0,0,0-.085-0.166l0.315-.36c0.124-.149.8-0.443,0.925-0.592a0.194,0.194,0,0,0,.04-0.251l0.316-.191s0.085-.4.126-0.5a5.912,5.912,0,0,1,.8-0.549,1.574,1.574,0,0,1,.777-0.36c0.423-.106.128-0.151,0.1-0.277s-0.357.17-.357,0.17l-0.5-.15a0.739,0.739,0,0,0,.42-0.167,0.47,0.47,0,0,1,.315-0.1c0.15-.062.105-0.128,0.105-0.128h0.232a2.371,2.371,0,0,0,.3-0.358c0.1-.167.337-0.486,0.337-0.486s-0.525.3-.632,0.338a1.475,1.475,0,0,1-.4-0.04,3.649,3.649,0,0,0-.526.293c-0.211.087-.442,0.213-0.442,0.213l-0.313-.062-0.252.1-0.61.254a3.108,3.108,0,0,1,.359-0.233l0.5-.3,0.4-.1,0.033-.206c-0.161.086-.32,0.166-0.483,0.259A17.67,17.67,0,0,0,602.387,457.071Zm15.835,17.169c0.424-1.351.832-2.749,1.215-4.188,3.409-12.741,3.8-23.707.885-24.49-1.257-.338-2.924,1.273-4.687,4.231h-0.056a19.075,19.075,0,0,1,5.793,1.043c0.035,0.61.038,1.173,0.036,1.627h0c0,0.368-.006.662-0.013,0.834-0.057,1.6-.2,3.24-0.413,4.891a1.022,1.022,0,0,0-.246-0.053,0.415,0.415,0,0,0-.229,0,1.441,1.441,0,0,1-.258-0.28,0.8,0.8,0,0,0-.471-0.3c-0.262-.09-0.243.1-0.243,0.1a0.9,0.9,0,0,1-.558.14,0.376,0.376,0,0,0-.38.328h0l-0.226.194a0.422,0.422,0,0,1-.262.209,0.854,0.854,0,0,0-.243.034,2.18,2.18,0,0,0-.069.4,0.163,0.163,0,0,1-.14.16,1.638,1.638,0,0,0-.3.087,3.571,3.571,0,0,0-.366.191,2.18,2.18,0,0,1-.313.262c-0.243.138-.33,0.191-0.33,0.191l-0.331.069,0.172,0.174-0.261.053a0.829,0.829,0,0,0,.016.278,0.386,0.386,0,0,0,.3.14,1.865,1.865,0,0,1-.385.229c-0.21.089-.21,0.121-0.192,0.209a0.6,0.6,0,0,0,.486.367c0.352,0.088.105-.017,0.261-0.1a1.888,1.888,0,0,1,.33-0.14,1.622,1.622,0,0,1,.213.5c0,0.156-.053.453-0.034,0.56s0.19-.035.19-0.035l-0.156.173s0.033,0.313.033,0.4,0.31,0.033.31-.052a0.438,0.438,0,0,1,.433-0.244c0.26-.018.228-0.051,0.228-0.261a3.328,3.328,0,0,1,.051-0.489l0.3-.088s0.169-.128.282-0.234a0.559,0.559,0,0,0,.068-0.08c0.036-.056-0.006-0.112-0.068-0.166s-0.119-.09-0.161-0.128a0.982,0.982,0,0,1-.121-0.542,0.7,0.7,0,0,1,.02-0.227,0.268,0.268,0,0,1,.262-0.148l0.032-.009c0.122-.035.278-0.243,0.5-0.35s-0.122-.122-0.122-0.122,0.036-.191.07-0.35,0.486,0.053.486,0.053l0.175,0.207-0.209.159-0.24.363-0.347.455,0.279,0.73a0.922,0.922,0,0,0,.4.1,0.838,0.838,0,0,0,.435-0.19,2.249,2.249,0,0,1,.509-0.15l-0.081.488a2.031,2.031,0,0,1-.366-0.034,4.168,4.168,0,0,0-.59.149c-0.248.027-.1,0.2-0.1,0.321a0.675,0.675,0,0,0,.346.272l-0.271.173a0.41,0.41,0,0,0-.368-0.246,0.812,0.812,0,0,0-.3.468,0.536,0.536,0,0,0,.1.5,1.03,1.03,0,0,0-.34.112,0.632,0.632,0,0,1-.056.033c-0.171.122-.221,0.026-0.221,0.026a0.337,0.337,0,0,0-.221-0.149,1.884,1.884,0,0,0-.424.245,1.948,1.948,0,0,1-.542,0l-0.273-.3-0.226.226a0.689,0.689,0,0,1-.321-0.2c-0.118-.149,0-0.122-0.025-0.247s-0.073-.122-0.073-0.122l0.123-.2,0.321-.2a1.07,1.07,0,0,0-.075-0.639c-0.149-.2-0.149.2-0.149,0.2l-0.494.32,0.026,0.669-0.1.3-0.192-.047-0.123.149a2.165,2.165,0,0,0-.318-0.149,0.8,0.8,0,0,0-.545.246l-0.044.11-0.079.185-0.271-.05-0.148.174h-0.3c-0.126,0-.049.221-0.049,0.221a0.549,0.549,0,0,1-.181.136l-0.043-.057a0.268,0.268,0,0,0-.268.072,0.421,0.421,0,0,1-.158.068c-0.07.016-.131,0.023-0.131,0.023l-0.126-.323s-0.09-.165-0.177-0.035a0.239,0.239,0,0,0-.056.215l0.037,0.22-0.18.017-0.035-.011-0.09-.026-0.311-.188-0.047-.027s-0.215-.037-0.176.105,0.215,0.323.215,0.414a0.031,0.031,0,0,0,.011.024,0.592,0.592,0,0,1,.313.159,0.489,0.489,0,0,1-.165.27,0.383,0.383,0,0,1,.127.27,1.907,1.907,0,0,1-.074.5c-0.035.107-.124,0.072-0.161,0.181a0.583,0.583,0,0,1-.043.087,1.354,1.354,0,0,1-.135.182,0.939,0.939,0,0,1-.361.035,1.274,1.274,0,0,0-.324-0.2,0.235,0.235,0,0,0-.088-0.006,0.218,0.218,0,0,1-.233-0.067,1.949,1.949,0,0,0-.432-0.252,0.428,0.428,0,0,1-.215-0.179s-0.029-.017-0.066-0.036a0.6,0.6,0,0,0-.222-0.089,0.507,0.507,0,0,0-.233.163,0.86,0.86,0,0,1,0,.324,0.443,0.443,0,0,1-.071.342c-0.106.072-.127,0.017-0.144,0.163s0.072,0.072-.071.216a1.515,1.515,0,0,1-.163.194,0.271,0.271,0,0,0-.035.024,0.585,0.585,0,0,0-.289.217,0.82,0.82,0,0,0-.125.432,2.27,2.27,0,0,0,.393.574l0.056,0.016a0.2,0.2,0,0,1,.163.147c0,0.128-.148.181,0,0.272a1.135,1.135,0,0,1,.16.163,4.638,4.638,0,0,0,.581.141c0.294,0.057.586,0.111,0.586,0.111l0.2-.144h0.341l0.089-.307,0.27-.017,0.019-.291s-0.035-.288.053-0.288a1.169,1.169,0,0,0,.3-0.15c0.124-.077.239-0.157,0.239-0.157s0.068,0.015.161,0.027a0.687,0.687,0,0,0,.378-0.009,2.65,2.65,0,0,0,.289-0.361,0.779,0.779,0,0,1,0-.329,0.066,0.066,0,0,1,.065-0.047,1.117,1.117,0,0,1,.594.126,0.872,0.872,0,0,0,.484.233,1.186,1.186,0,0,0,.35-0.186l0.044-.033c0.039-.028.146-0.1,0.262-0.19l0.008,0.013a0.507,0.507,0,0,1,.322.163,0.812,0.812,0,0,1,.072.5,0.717,0.717,0,0,0,.323.376c0.089,0.107.523,0.684,0.665,0.864s0.431,0.5.431,0.5l0.144,0.344-0.3.216a2.786,2.786,0,0,1-.433-0.055,0.2,0.2,0,0,0-.2.072,1.261,1.261,0,0,1-.234-0.178c-0.162-.145-0.052.018-0.251,0.127s0.251,0.268.362,0.359a2.956,2.956,0,0,1,.319.345c0.072,0.089.253-.033,0.253-0.18a2.1,2.1,0,0,1,.018-0.269h0.321l0.2-.233,0.165-.143,0.072-.2-0.127-.359a1.636,1.636,0,0,1,.3-0.072,0.46,0.46,0,0,1,.181.27l0.093,0.036a0.817,0.817,0,0,0-.054-0.306,2.048,2.048,0,0,0-.341-0.305,2.9,2.9,0,0,1-.418-0.2,4.052,4.052,0,0,1-.411-0.646,0.46,0.46,0,0,1-.053-0.306,2.953,2.953,0,0,0-.271-0.321,0.577,0.577,0,0,1-.05-0.306s0.162-.108.341-0.216a0.226,0.226,0,0,0,.1-0.081,0.91,0.91,0,0,1,.259.421,1.48,1.48,0,0,0,.107.45,0.748,0.748,0,0,0,.539.251c0.289,0.053.2,0.251,0.2,0.251a1.59,1.59,0,0,1,.3.541c0.033,0.216.033,0.324,0.053,0.593a1.907,1.907,0,0,0,.232.561c0.091,0.249.124,0.249,0.18,0.445,0.025,0.093.042,0.183,0.074,0.273q-0.266.99-.565,1.994a2.019,2.019,0,0,0-.288.726,0.527,0.527,0,0,1-.133.052h0l-0.374-.091h0a4.627,4.627,0,0,0-.854-0.434,4.95,4.95,0,0,1-.42-0.658,0.268,0.268,0,0,0-.315-0.078,1.748,1.748,0,0,1-.63-0.237c-0.056-.071-0.15-0.177-0.225-0.261s-0.118-.131-0.118-0.131a1.419,1.419,0,0,1,.118-0.1,0.739,0.739,0,0,1,.249-0.16c0.131-.028-0.052-0.292-0.211-0.554s0.42-.342.393-0.473a0.725,0.725,0,0,0-.432-0.2l-0.014,0a1.08,1.08,0,0,0-.522,0l-0.5-.1s-0.158.05-.288,0.1a0.209,0.209,0,0,1-.17-0.022,0.638,0.638,0,0,1-.3-0.3,0.359,0.359,0,0,0-.368-0.124,0.477,0.477,0,0,1-.208-0.059,0.336,0.336,0,0,0-.192-0.056c-0.116,0-.222.066-0.359,0.085-0.171.022-.4,0.078-0.55,0.1a0.378,0.378,0,0,1-.081.01,1.15,1.15,0,0,0-.472.21c-0.184.1-.234-0.29-0.234-0.29a1,1,0,0,1-.16-0.019,2.63,2.63,0,0,1-.472-0.139c-0.393-.16-0.211-0.4-0.211-0.4s-0.072.059-.221,0.19c-0.05.042-.1,0.094-0.169,0.152a0.7,0.7,0,0,1-.578.315,0.82,0.82,0,0,0-.524.158,2.936,2.936,0,0,0-.513.724,63.168,63.168,0,0,1-9.008-3.825c-0.121-.066-0.318-0.173-0.56-0.31h0c-0.414-.233-0.965-0.562-1.552-0.94a19.14,19.14,0,0,1,2.007-5.573,0.253,0.253,0,0,0-.036.069c-3.436.05-5.663,0.695-6,1.953-0.78,2.927,8.889,8.065,21.6,11.483C615.429,473.589,616.842,473.932,618.222,474.24Zm-3.862-5.384a0.3,0.3,0,0,0-.087.231,0.307,0.307,0,0,0,.159.1,0.5,0.5,0,0,0,.218-0.014c0.042-.009.1-0.022,0.152-0.038,0.173-.051.069-0.141,0.1-0.263a1.673,1.673,0,0,1,.1-0.406c0.07-.122-0.142-0.212-0.142-0.212s-0.163.23-.222,0.322l-0.006.012A0.814,0.814,0,0,1,614.36,468.856Zm0.289-.942a0.516,0.516,0,0,0,.346-0.185c0.05-.141.033-0.069,0.088-0.229s-0.142.053-.142,0.053l-0.23.14-0.062.137-0.041.093A0.147,0.147,0,0,0,614.649,467.914Z" transform="translate(-588.656 -442.313)"/>
</svg>
