<svg xmlns="http://www.w3.org/2000/svg" width="46.688" height="42.781" viewBox="0 0 46.688 42.781">
  <defs>
    <style>
      .cls-1 {
        fill: #262626;
        fill-rule: evenodd;
      }
    </style>
  </defs>
  <path id="icon" class="cls-1" d="M637.064,213.006a2.666,2.666,0,0,0-2.092-1.015H607.855a2.664,2.664,0,0,0-2.538,3.478l4.991,15.607a1.658,1.658,0,0,0,1.579,1.154h20.3a1.659,1.659,0,0,0,1.612-1.271l3.761-15.68A2.67,2.67,0,0,0,637.064,213.006Zm-0.641,22.178H610.236a2.127,2.127,0,0,1-2.029-1.477L601,211.355a5.076,5.076,0,0,0-4.845-3.532h-1.576a2.429,2.429,0,0,0,0,4.857h1.576a0.236,0.236,0,0,1,.225.164l7.208,22.352a6.969,6.969,0,0,0,6.65,4.845h26.187A2.429,2.429,0,0,0,636.423,235.184Zm-24.466,7.653a3.873,3.873,0,1,0,3.871,3.873A3.872,3.872,0,0,0,611.957,242.837Zm20.329,0a3.873,3.873,0,1,0,3.871,3.873A3.872,3.872,0,0,0,632.286,242.837Z" transform="translate(-592.156 -207.813)"/>
</svg>
