<svg xmlns="http://www.w3.org/2000/svg" width="79" height="76" viewBox="0 0 79 76">
  <defs>
    <style>
      .cls-1 {
        fill: #3c3c3c;
        fill-rule: evenodd;
      }
    </style>
  </defs>
  <path class="cls-1" d="M996.921,2886H922.077a2.09,2.09,0,0,1-2.079-2.1v-60.92a2.089,2.089,0,0,1,2.079-2.1h74.844a2.09,2.09,0,0,1,2.079,2.1v60.92A2.09,2.09,0,0,1,996.921,2886Zm-72.765-4.2h70.686v-56.72H924.156v56.72Zm72.765-56.72H922.077a2.09,2.09,0,0,1-2.079-2.1v-10.89a2.089,2.089,0,0,1,2.079-2.1h74.844a2.09,2.09,0,0,1,2.079,2.1v10.89A2.09,2.09,0,0,1,996.921,2825.08Zm-72.765-4.2h70.686v-6.69H924.156v6.69Zm5.025-4.81a1.47,1.47,0,1,1-1.455,1.47A1.463,1.463,0,0,1,929.181,2816.07Zm4.35,0a1.465,1.465,0,1,1-1.453,1.47A1.463,1.463,0,0,1,933.531,2816.07Zm4.35,0a1.47,1.47,0,1,1-1.454,1.47A1.463,1.463,0,0,1,937.881,2816.07Zm11.164,43.11a1.8,1.8,0,0,1-1.286-.54l-5.66-5.71a1.851,1.851,0,0,1,0-2.6l5.649-5.71a1.82,1.82,0,0,1,2.573,0,1.851,1.851,0,0,1,0,2.6l-4.364,4.41,4.374,4.41a1.853,1.853,0,0,1,0,2.6A1.8,1.8,0,0,1,949.045,2859.18Zm20.917,0a1.8,1.8,0,0,1-1.286-.54,1.851,1.851,0,0,1,0-2.6l4.365-4.4-4.375-4.42a1.853,1.853,0,0,1,0-2.6,1.819,1.819,0,0,1,2.572,0l5.66,5.72a1.837,1.837,0,0,1,0,2.59l-5.651,5.71A1.8,1.8,0,0,1,969.962,2859.18Zm-13.069,4.24a1.767,1.767,0,0,1-.452-0.06,1.835,1.835,0,0,1-1.312-2.23l4.623-18.28a1.818,1.818,0,0,1,2.212-1.33,1.842,1.842,0,0,1,1.314,2.24l-4.624,18.28A1.821,1.821,0,0,1,956.893,2863.42Z" transform="translate(-920 -2810)"/>
</svg>
