<?xml version="1.0" encoding="utf-8"?>
<!-- Generator: Adobe Illustrator 23.0.2, SVG Export Plug-In . SVG Version: 6.00 Build 0)  -->
<svg version="1.1" id="Layer_6" xmlns="http://www.w3.org/2000/svg" xmlns:xlink="http://www.w3.org/1999/xlink" x="0px" y="0px"
	 viewBox="0 0 112 37" style="enable-background:new 0 0 112 37;" xml:space="preserve">
<style type="text/css">
	.st0{fill:#00C7FC;}
	.st1{fill:#FFFFFF;}
</style>
<g>
	<path class="st0" d="M26.7,13.1c-0.2-7.1-6-12.7-13.2-12.7C6.5,0.4,0.7,6.1,0.4,13.1h0v17.3c0,1.9,1,2.2,2.1,0.8c0,0,0,0,0,0
		l0.2-0.2c1.2-1.5,3.1-1.4,4.2,0L7,31l0.1,0.1c1.2,1.5,3.1,1.5,4.2,0l0.1-0.1l0.1-0.1c1.2-1.5,3.1-1.4,4.3,0l0.1,0.2v0
		c1.2,1.5,3.1,1.5,4.3,0l0,0l0.1-0.2c1.2-1.5,3.1-1.5,4.2,0l0.1,0.1l0.1,0.1c1.2,1.5,2.1,1.1,2.1-0.7L26.7,13.1L26.7,13.1z M9,14.3
		c-1.3,0-2.3-1-2.3-2.3c0-1.3,1-2.3,2.3-2.3c1.3,0,2.3,1,2.3,2.3C11.3,13.3,10.3,14.3,9,14.3z M18.2,14.3c-1.3,0-2.3-1-2.3-2.3
		c0-1.3,1-2.3,2.3-2.3c1.3,0,2.3,1,2.3,2.3C20.5,13.3,19.5,14.3,18.2,14.3z"/>
	<g>
		<path class="st1" d="M38.1,30.4c-0.9,0-1.5-0.3-2-0.8c-0.5-0.5-0.8-1.2-0.8-2c0-1.9,1.4-3.5,4.3-4.8c0.1-0.9,0.3-2.3,0.5-4
			c0.4-3.6,0.6-5.6,0.7-6.2c0.7-0.4,1.3-0.6,2.1-0.6c0.7,0,1.3,0,1.6,0.1l-1.8,13.6C42.1,28.8,40.6,30.4,38.1,30.4z M37,27.4
			c0,0.6,0.3,0.9,0.8,0.9c0.2,0,0.5-0.1,0.7-0.4c0.2-0.3,0.4-0.8,0.5-1.4l0.2-1.5C37.8,25.7,37,26.6,37,27.4z M53.1,25.1l0.8,1.2
			c-0.2,0.9-0.6,1.6-1,2.2c-0.4,0.6-0.9,1-1.3,1.3c-0.8,0.4-1.6,0.7-2.3,0.7c-1.3,0-2.2-0.4-2.9-1.1c-0.6-0.7-0.9-1.7-1-3
			c0-2-0.2-3.3-0.4-3.8c-0.2-0.5-0.6-0.8-1.3-0.8l0.2-1.8c0.3,0,0.5-0.1,0.7-0.2c0.2-0.1,0.4-0.2,0.6-0.5c0.5-0.5,0.9-1.6,1.2-3.4
			c0.2-1.3,0.6-2.3,1.3-2.9c0.6-0.6,1.4-0.9,2.1-0.9c0.8,0,1.4,0.2,2,0.7c0.6,0.4,0.9,1.2,0.9,2.1c0,1.3-0.5,2.4-1.4,3.4
			c-0.9,0.9-2.2,1.8-3.9,2.6c0.6,0.3,1,0.7,1.3,1.4c0.3,0.6,0.4,1.3,0.5,2c0,0.7,0.1,1.4,0.1,2c0.1,1.5,0.5,2.3,1.4,2.3
			C51.5,28.4,52.3,27.3,53.1,25.1z M50.7,14.7c-0.1-0.1-0.3-0.2-0.4-0.2c-0.1,0-0.2,0-0.3,0c-0.1,0-0.1,0.1-0.2,0.2
			c-0.1,0.1-0.1,0.1-0.1,0.2c0,0.1-0.1,0.2-0.1,0.3c0,0.1-0.1,0.3-0.1,0.4c0,0.1-0.1,0.3-0.1,0.4c0,0.2-0.1,0.5-0.2,0.8
			c-0.1,0.3-0.2,0.7-0.3,1c1.3-0.9,2-1.7,2-2.6C50.9,15.1,50.8,14.9,50.7,14.7z"/>
		<path class="st1" d="M63.8,30.4c-1.5,0-2.5-0.5-2.9-1.5c-0.8,1-1.9,1.6-3.2,1.6c-1.3,0-2.4-0.4-3.3-1.3c-0.9-0.9-1.3-2-1.3-3.5
			c0-2.1,0.6-3.8,1.9-5c1.2-1.3,2.8-1.9,4.7-1.9c0,0,0.1,0,0.1,0c0.8,0,1.5,0.1,2.2,0.4c0.4-0.3,1-0.4,1.6-0.4
			c0.6,0,1.1,0.1,1.3,0.2c-0.1,1.2-0.3,2.4-0.5,3.5c-0.2,1.1-0.3,2-0.3,2.4c-0.1,1.1-0.2,1.9-0.2,2.4c0,0.6,0.3,1,0.8,1
			c0.4,0,0.8-0.3,1.3-0.8c0.4-0.5,0.8-1.4,1.2-2.5c0.5,0.4,0.8,0.9,1,1.4c-0.5,1.5-1.1,2.6-1.9,3.2C65.4,30.1,64.6,30.4,63.8,30.4z
			 M59.9,20.6c-1,0-1.8,0.4-2.4,1.2c-0.6,0.8-1,1.9-1.1,3.5c0,0.1,0,0.3,0,0.4c0,0.8,0.2,1.4,0.6,1.9c0.4,0.5,0.9,0.7,1.5,0.7
			c1,0,1.8-0.7,2.3-2.1l0.6-5.2C60.8,20.7,60.4,20.6,59.9,20.6z"/>
		<path class="st1" d="M77,22.9c1.3,0.9,1.9,2,1.9,3.3c0,1.3-0.5,2.3-1.5,3.1c-1,0.8-2.2,1.2-3.8,1.2c-1,0-1.8-0.2-2.4-0.7
			s-1-1.1-1-1.8s0.2-1.3,0.7-1.7c0.5-0.4,1.1-0.7,1.8-0.8c-0.3,0.5-0.5,0.9-0.5,1.4c0,0.4,0.2,0.8,0.5,1.1c0.3,0.3,0.7,0.4,1.2,0.4
			c0.5,0,0.9-0.2,1.2-0.5c0.3-0.3,0.5-0.7,0.5-1.2c0-0.7-0.3-1.4-1-2c-0.4-0.3-0.9-0.7-1.3-1c-0.5-0.3-0.7-0.5-0.8-0.5
			c-0.1,0-0.1-0.1-0.2-0.1c-0.3,0.3-0.7,0.8-1.3,1.4c-0.5,0.6-1,1.1-1.3,1.4c-0.9,1-1.4,1.8-1.5,2.5c0,0.1,0,0.4,0,0.7
			c0,0.4,0.1,0.7,0.3,1.1c0.2,0.4,0.5,0.7,0.8,0.9c0.3,0.2,0.6,0.3,0.9,0.5c0.3,0.1,0.6,0.2,0.8,0.3c0.2,0,0.3,0.1,0.3,0.1
			c0,0.1-0.2,0.2-0.5,0.4c-0.7,0.2-1.3,0.4-2.1,0.4c-0.7,0-1.4-0.3-2.1-0.8c-0.9-0.7-1.4-1.6-1.4-2.8c0-0.7,0.2-1.4,0.6-2.1
			c0.7-1.3,2.2-3,4.6-5.2c-0.6-0.6-0.9-1.2-0.9-1.9c0-0.7,0.3-1.2,0.8-1.7c0.5-0.5,1.1-0.7,1.8-0.7c0.6,0,1.2,0.2,1.6,0.7
			c0.3,0.3,0.5,0.8,0.5,1.3c0,0.5-0.2,1.1-0.5,1.7C75.2,21.9,76.4,22.5,77,22.9z M71.8,20.2c0.4-0.4,0.6-0.7,0.6-0.9
			c0-0.4-0.2-0.6-0.5-0.7c-0.4,0-0.6,0.2-0.6,0.7C71.2,19.6,71.4,19.9,71.8,20.2z"/>
		<path class="st1" d="M81.6,18.7c1,0,1.7,0.3,1.8,0.8c0.8-0.5,1.7-0.8,2.9-0.8c1.2,0,2.1,0.5,3,1.4c0.8,0.9,1.3,2.1,1.3,3.3
			c0,0.2,0,0.4,0,0.6c-0.2,2.1-0.9,3.7-2.1,4.8c-1.2,1.1-2.8,1.7-4.8,1.7c-0.4,0-0.9-0.1-1.5-0.2l-0.8,6.6h-3.2
			c1-8.8,1.7-14.8,2.1-18C80.5,18.7,81,18.7,81.6,18.7z M87.1,23.6c0-0.7-0.2-1.3-0.5-1.9c-0.3-0.5-0.8-0.8-1.5-0.8
			c-0.9,0-1.6,0.6-2.1,1.8c-0.3,2.4-0.5,3.8-0.6,4.1c0,0.5,0.1,0.8,0.5,1.1c0.3,0.2,0.7,0.4,1.2,0.4c0.8,0,1.5-0.4,2-1.1
			C86.8,26.2,87.1,25,87.1,23.6z"/>
		<path class="st1" d="M97.7,23.7c0.5-0.6,0.7-1.2,0.7-1.7c0-0.6-0.1-0.9-0.4-1.1c-0.3-0.2-0.6-0.3-1-0.3c-0.8,0-1.4,0.4-2,1.3
			c-0.6,0.8-0.9,1.8-0.9,3c0,1.2,0.3,2,0.8,2.6c0.6,0.6,1.2,0.9,2.1,0.9c1.2,0,2.4-0.4,3.5-1.3c1.1-0.8,2-1.9,2.7-3.3
			c0.4,0.3,0.7,0.8,1,1.3c-0.5,1.2-1.5,2.4-2.8,3.5c-0.7,0.6-1.5,1-2.4,1.4c-0.9,0.4-1.9,0.5-2.9,0.5c-1.6,0-2.9-0.5-3.8-1.5
			c-1-1.1-1.5-2.4-1.5-4.1c0-1.7,0.6-3.1,1.9-4.3c1.2-1.2,2.7-1.9,4.5-1.9c1.2,0,2.2,0.3,3,0.8c0.8,0.5,1.2,1.3,1.2,2.2
			c0,1.2-0.5,2.2-1.5,3c-1,0.8-2.3,1.3-4.1,1.6l-0.3-1.4C96.5,24.7,97.2,24.3,97.7,23.7z"/>
		<path class="st1" d="M109.3,21.8c0-0.7-0.3-1.1-1-1.1s-1.2,0.4-1.6,1.3c1.7,1.4,2.6,2.9,2.6,4.6c0,1.2-0.3,2.2-1,2.8
			c-0.7,0.6-1.6,1-2.6,1c-1,0-1.8-0.3-2.3-1c-0.5-0.7-0.7-1.5-0.7-2.5c0-0.3,0-0.5,0-0.7l0.8-7.3c0.6-0.2,1.2-0.3,1.8-0.3
			c1,0,1.5,0.4,1.5,1.1v0c0.6-0.8,1.5-1.1,2.5-1.1c0.7,0,1.3,0.2,1.7,0.5c0.4,0.3,0.6,0.8,0.6,1.3c0,0.5-0.2,1-0.6,1.3
			c-0.4,0.3-0.9,0.5-1.6,0.5c0,0-0.1,0-0.1,0C109.3,22.2,109.3,22,109.3,21.8z M106.4,23.7c-0.3,2.3-0.4,3.5-0.4,3.5
			c0,0.7,0.3,1,0.8,1c0.7,0,1.1-0.6,1.1-1.7C107.8,25.6,107.3,24.7,106.4,23.7z"/>
	</g>
	<g>
		<path class="st0" d="M75.3,15.4h-0.8v-4.3h-1.5v-0.7h3.7v0.7h-1.5V15.4z"/>
		<path class="st0" d="M80.9,15.4H78v-5h2.8v0.7h-2v1.4h1.9v0.7h-1.9v1.6h2V15.4z"/>
		<path class="st0" d="M84.6,15.4l-1.4-4.2h0c0,0.6,0.1,1.2,0.1,1.7v2.4h-0.7v-5h1.1l1.4,4h0l1.4-4h1.2v5h-0.8v-2.5c0-0.2,0-0.6,0-1
			c0-0.4,0-0.6,0-0.7h0l-1.5,4.2H84.6z"/>
		<path class="st0" d="M92.4,11.9c0,0.5-0.2,0.9-0.5,1.2c-0.3,0.3-0.8,0.4-1.5,0.4h-0.5v1.9h-0.8v-5h1.4c0.6,0,1.1,0.1,1.4,0.4
			C92.3,11,92.4,11.4,92.4,11.9z M89.9,12.8h0.4c0.4,0,0.7-0.1,0.9-0.2c0.2-0.1,0.3-0.4,0.3-0.7c0-0.3-0.1-0.5-0.3-0.6
			c-0.2-0.1-0.4-0.2-0.8-0.2h-0.6V12.8z"/>
		<path class="st0" d="M93.7,15.4v-5h0.8v4.3h2.1v0.7H93.7z"/>
		<path class="st0" d="M101.2,15.4l-0.5-1.4h-1.9l-0.5,1.4h-0.9l1.9-5h0.9l1.9,5H101.2z M100.5,13.3l-0.5-1.4c0-0.1-0.1-0.2-0.1-0.4
			c-0.1-0.2-0.1-0.3-0.1-0.4c-0.1,0.3-0.2,0.6-0.3,0.9L99,13.3H100.5z"/>
		<path class="st0" d="M104.9,15.4h-0.8v-4.3h-1.5v-0.7h3.7v0.7h-1.5V15.4z"/>
		<path class="st0" d="M110.2,15.4h-2.8v-5h2.8v0.7h-2v1.4h1.9v0.7h-1.9v1.6h2V15.4z"/>
	</g>
</g>
</svg>
