<?xml version="1.0" encoding="utf-8"?>
<!-- Generator: Adobe Illustrator 23.0.2, SVG Export Plug-In . SVG Version: 6.00 Build 0)  -->
<svg version="1.1" id="Layer_1" xmlns="http://www.w3.org/2000/svg" xmlns:xlink="http://www.w3.org/1999/xlink" x="0px" y="0px"
	 viewBox="0 0 65 65" style="enable-background:new 0 0 65 65;" xml:space="preserve">
<style type="text/css">
	.st0{fill:#FFFFFF;}
</style>
<g>
	<path class="st0" d="M64.3,46.3l-5.1-9.5l0,0l-0.4-0.6c-0.2-0.4-0.5-0.6-0.9-0.7s-0.7,0-1.1,0.2l-0.6,0.4l0,0l-9.1,6.1
		c-0.7,0.4-0.9,1.4-0.5,2.1l0.4,0.5c0.4,0.7,1.3,0.7,2,0.3l5.4-3.7c-1.3,10.4-9.7,18.3-19.9,19.3V20.4h8c1.1,0,2-0.9,2-2s-0.9-2-2-2
		h-8.1c0-0.1,0-0.1,0-0.2c3.6-0.8,6.2-4,6.2-7.8c0-4.5-3.6-8.1-8.1-8.1s-8.1,3.6-8.1,8.1c0,3.8,2.6,7,6.2,7.8c0,0.1,0,0.1-0.1,0.2
		h-8.1c-1.1,0-2,0.9-2,2s0.9,2,2,2h8v40.1c-10.2-0.9-18.6-8.9-19.9-19.3l5.4,3.7c0.7,0.4,1.6,0.4,2-0.3l0.4-0.5
		c0.4-0.7,0.2-1.6-0.5-2.1l-9-6l0,0l-0.7-0.4c-0.3-0.2-0.7-0.3-1.1-0.2s-0.7,0.3-0.9,0.7l-0.3,0.6l0,0l-5.1,9.5
		c-0.4,0.7-0.2,1.6,0.5,2.1l0.6,0.2c0.7,0.4,1.5,0,1.9-0.7l3-5.6C8.5,55,19.5,64.6,32.5,64.6s24-9.6,25.8-22.4l3,5.6
		c0.4,0.7,1.2,1.1,1.9,0.7l0.6-0.2C64.4,47.8,64.7,47,64.3,46.3z M28.4,8.4c0-2.2,1.8-4.1,4.1-4.1c2.2,0,4.1,1.8,4.1,4.1
		c0,2.2-1.8,4.1-4.1,4.1C30.2,12.6,28.4,10.7,28.4,8.4z"/>
</g>
</svg>
