<?xml version="1.0" encoding="utf-8"?>
<!-- Generator: Adobe Illustrator 23.0.2, SVG Export Plug-In . SVG Version: 6.00 Build 0)  -->
<svg version="1.1" id="Layer_1" xmlns="http://www.w3.org/2000/svg" xmlns:xlink="http://www.w3.org/1999/xlink" x="0px" y="0px"
	 viewBox="0 0 65 48" style="enable-background:new 0 0 65 48;" xml:space="preserve">
<style type="text/css">
	.st0{fill:#FFFFFF;}
</style>
<g>
	<path class="st0" d="M64.9,32.6c-0.1-0.9-3.4-20-3.9-23c0-0.3-0.1-0.6-0.1-0.9C60.5,5.7,59.8,0,50.4,0c-1.1,0-2,0.9-2,2s0.9,2,2,2
		c5.8,0,6.1,2.3,6.5,5.3c0,0.4,0.1,0.7,0.2,1.1c0.2,1.4,1.3,7,2.3,12.6c-2.4-1.8-5.4-2.9-8.5-2.9c-5.2,0-9.7,2.7-12.3,6.8
		c-1.2-0.5-3.3-1-6.1-1c-2.7,0-4.8,0.6-6,1.1c-2.5-4.1-6.9-6.9-12.2-6.9c-3.4,0-6.5,1.2-8.9,3.1c0.9-5.6,2.1-11.4,2.3-12.8
		c0.1-0.3,0.1-0.7,0.2-1.1C8.2,6.3,8.5,4,14.3,4c1.1,0,2-0.9,2-2s-0.9-2-2-2C5,0,4.2,5.7,3.8,8.8c0,0.3-0.1,0.6-0.1,0.9
		c-0.5,3.1-3.6,22-3.7,22.9c0,0.2,0,0.4,0,0.6c0,0.3,0,0.6,0,0.9c0,7.7,6.5,14,14.4,14s14.1-6.3,14.1-14c0-1.2-0.2-2.3-0.4-3.4
		c0.8-0.3,2.3-0.8,4.5-0.8c2.1,0,3.6,0.4,4.5,0.7c-0.3,1.1-0.5,2.2-0.5,3.4c0,7.7,6.5,14,14.4,14S65,41.6,65,33.9c0-0.2,0-0.4,0-0.6
		C64.9,33.1,65,32.8,64.9,32.6z M14.3,43.9C8.7,43.9,4,39.3,4,33.9s4.7-10,10.3-10c5.6,0,10.1,4.5,10.1,10
		C24.4,39.4,19.8,43.9,14.3,43.9z M50.7,43.9c-5.6,0-10.3-4.6-10.3-10s4.7-10,10.3-10c4.8,0,8.8,3.3,9.8,7.8c0,0.4,0.1,0.8,0.1,1.1
		c0,0.2,0.1,0.3,0.1,0.5s0,0.4,0,0.5C60.8,39.4,56.4,43.9,50.7,43.9z"/>
</g>
</svg>
