<?xml version="1.0" encoding="utf-8"?>
<!-- Generator: Adobe Illustrator 23.0.2, SVG Export Plug-In . SVG Version: 6.00 Build 0)  -->
<svg version="1.1" id="Layer_1" xmlns="http://www.w3.org/2000/svg" xmlns:xlink="http://www.w3.org/1999/xlink" x="0px" y="0px"
	 viewBox="0 0 65 65" style="enable-background:new 0 0 65 65;" xml:space="preserve">
<path d="M64.2,19.1L55.5,2.4c-0.5-1-1.8-1.8-2.9-1.8H32.5c0,0,0,0-0.1,0c0,0,0,0-0.1,0H12.5c-1.1,0-2.4,0.8-2.9,1.8L0.8,18.8
	c-0.5,1-0.4,2.5,0.2,3.4L31,64c0.3,0.4,0.7,0.7,1.2,0.7c0.4,0,0.8-0.2,1.2-0.7l30.5-41.5C64.5,21.6,64.7,20.1,64.2,19.1z M59.4,18.6
	H48.7L53,6.3L59.4,18.6z M36.4,4.6h12.9l-4,11.4L36.4,4.6z M42.2,18.6H23.6L32.4,6L42.2,18.6z M20.1,16.7l-4-12.1h12.4L20.1,16.7z
	 M43,22.6L32.2,53.4L22,22.6H43z M27.8,52.6l-21.5-30h11.5L27.8,52.6z M47.3,22.6h11.5l-22.1,30L47.3,22.6z M12.3,5.8l4.3,12.8H5.4
	L12.3,5.8z"/>
</svg>
